<?xml version="1.0" encoding="utf-8"?>
<svg xmlns="http://www.w3.org/2000/svg" viewBox="5.447 11.95 150.604 22.444" width="150.604px" height="22.444px">
  <path d="M 9.259 13.81 L 9.259 34.391 L 5.447 34.391 L 5.447 11.956 L 7.306 11.956 C 8.369 11.942 9.243 12.771 9.259 13.81 Z M 40.2 13.816 L 40.2 15.595 L 24.736 15.595 C 22.314 15.567 20.325 17.459 20.289 19.827 L 20.289 26.514 C 20.323 28.882 22.313 30.776 24.736 30.746 L 36.374 30.746 L 36.374 25.818 L 32.945 25.818 C 31.763 25.835 30.79 24.912 30.774 23.757 L 30.774 22.199 L 38.196 22.199 C 39.274 22.185 40.159 23.026 40.176 24.079 L 40.176 31.492 C 40.142 33.111 38.78 34.402 37.124 34.388 L 24.736 34.388 C 20.171 34.388 16.473 30.861 16.473 26.524 L 16.473 19.827 C 16.473 15.489 20.185 11.96 24.736 11.96 L 38.23 11.96 C 39.299 11.938 40.183 12.77 40.2 13.816 Z M 94.954 11.95 L 94.954 34.394 L 92.282 34.394 C 91.581 34.398 90.928 34.051 90.55 33.474 C 88.554 30.395 85.327 25.525 82.694 22.101 C 81.312 20.297 80.008 18.614 78.882 17.172 L 78.882 34.391 L 75.066 34.391 L 75.066 11.956 L 78.29 11.956 C 78.928 11.954 79.53 12.24 79.921 12.732 C 81.346 14.53 83.39 17.149 85.636 20.07 C 87.407 22.377 89.404 25.262 91.142 27.851 L 91.142 11.95 L 94.954 11.95 Z M 68.149 13.826 L 68.149 15.587 L 57.469 15.587 C 54.093 15.549 51.253 18.05 50.94 21.335 L 68.149 21.335 L 68.149 24.966 L 50.94 24.966 C 51.252 28.252 54.093 30.754 57.469 30.713 L 68.138 30.713 L 68.138 32.479 C 68.122 33.519 67.246 34.349 66.182 34.335 L 57.469 34.335 C 51.747 34.335 47.108 29.931 47.108 24.503 L 47.108 21.815 C 47.108 16.386 51.754 11.983 57.469 11.983 L 66.192 11.983 C 67.252 11.966 68.126 12.79 68.149 13.826 Z" style="stroke-width: 1; fill: rgb(255, 255, 255);" transform="matrix(1, 0, 0, 1, -2.842170943040401e-14, -5.684341886080802e-14)"/>
  <path d="M 106.627 30.68 L 101.642 30.68 L 101.642 15.657 L 106.668 15.657 C 108.083 15.657 109.3 15.958 110.322 16.56 C 111.342 17.157 112.128 18.015 112.678 19.135 C 113.232 20.254 113.508 21.593 113.508 23.153 C 113.508 24.718 113.232 26.063 112.678 27.189 C 112.128 28.312 111.339 29.177 110.309 29.777 C 109.284 30.379 108.055 30.68 106.627 30.68 Z M 104.617 27.958 L 106.503 27.958 C 107.382 27.958 108.122 27.793 108.722 27.459 C 109.326 27.123 109.78 26.602 110.083 25.897 C 110.389 25.187 110.542 24.274 110.542 23.153 C 110.542 22.043 110.389 21.136 110.083 20.432 C 109.78 19.729 109.329 19.21 108.729 18.878 C 108.128 18.544 107.389 18.378 106.51 18.378 L 104.617 18.378 L 104.617 27.958 Z M 128.636 23.168 C 128.636 24.807 128.346 26.2 127.764 27.349 C 127.186 28.499 126.399 29.377 125.4 29.983 C 124.408 30.584 123.29 30.885 122.049 30.885 C 120.799 30.885 119.679 30.582 118.685 29.975 C 117.691 29.37 116.906 28.491 116.329 27.343 C 115.753 26.193 115.464 24.801 115.464 23.168 C 115.464 21.53 115.753 20.137 116.329 18.988 C 116.906 17.838 117.691 16.963 118.685 16.362 C 119.679 15.755 120.799 15.452 122.049 15.452 C 123.29 15.452 124.408 15.755 125.4 16.362 C 126.399 16.963 127.186 17.838 127.764 18.988 C 128.346 20.137 128.636 21.53 128.636 23.168 Z M 125.62 23.168 C 125.62 22.107 125.471 21.213 125.174 20.484 C 124.882 19.756 124.467 19.202 123.931 18.826 C 123.395 18.449 122.768 18.262 122.049 18.262 C 121.331 18.262 120.704 18.449 120.169 18.826 C 119.633 19.202 119.217 19.756 118.919 20.484 C 118.625 21.213 118.479 22.107 118.479 23.168 C 118.479 24.23 118.625 25.125 118.919 25.853 C 119.217 26.583 119.633 27.134 120.169 27.511 C 120.704 27.887 121.331 28.077 122.049 28.077 C 122.768 28.077 123.395 27.887 123.931 27.511 C 124.467 27.134 124.882 26.583 125.174 25.853 C 125.471 25.125 125.62 24.23 125.62 23.168 Z M 143.247 20.916 L 140.238 20.916 C 140.184 20.501 140.072 20.133 139.902 19.808 C 139.733 19.482 139.517 19.202 139.251 18.972 C 138.984 18.743 138.678 18.567 138.329 18.445 C 137.986 18.322 137.613 18.262 137.21 18.262 C 136.483 18.262 135.849 18.455 135.308 18.841 C 134.769 19.222 134.349 19.779 134.051 20.513 C 133.754 21.242 133.606 22.126 133.606 23.168 C 133.606 24.239 133.754 25.139 134.051 25.868 C 134.354 26.596 134.776 27.146 135.315 27.519 C 135.856 27.889 136.481 28.077 137.19 28.077 C 137.588 28.077 137.957 28.018 138.295 27.907 C 138.639 27.795 138.943 27.631 139.209 27.417 C 139.476 27.197 139.694 26.928 139.869 26.615 C 140.046 26.303 140.171 25.945 140.238 25.544 L 143.247 25.559 C 143.168 26.249 142.975 26.915 142.663 27.555 C 142.358 28.19 141.942 28.76 141.421 29.264 C 140.903 29.763 140.285 30.159 139.566 30.452 C 138.852 30.74 138.044 30.885 137.143 30.885 C 135.888 30.885 134.765 30.582 133.778 29.975 C 132.793 29.37 132.014 28.491 131.441 27.343 C 130.875 26.193 130.592 24.801 130.592 23.168 C 130.592 21.53 130.878 20.137 131.457 18.988 C 132.033 17.838 132.815 16.963 133.805 16.362 C 134.793 15.755 135.906 15.452 137.143 15.452 C 137.957 15.452 138.712 15.574 139.409 15.819 C 140.11 16.064 140.729 16.421 141.269 16.89 C 141.81 17.355 142.248 17.924 142.589 18.598 C 142.93 19.274 143.152 20.046 143.247 20.916 Z M 153.009 19.978 C 152.954 19.386 152.719 18.926 152.302 18.598 C 151.886 18.272 151.32 18.108 150.605 18.108 C 150.121 18.108 149.711 18.181 149.376 18.328 C 149.041 18.469 148.786 18.667 148.607 18.922 C 148.433 19.175 148.346 19.464 148.346 19.787 C 148.337 20.055 148.39 20.291 148.504 20.492 C 148.623 20.692 148.786 20.866 148.992 21.013 C 149.198 21.153 149.435 21.279 149.706 21.387 C 149.976 21.49 150.264 21.577 150.571 21.65 L 151.835 21.974 C 152.449 22.12 153.011 22.315 153.523 22.56 C 154.037 22.803 154.48 23.105 154.856 23.462 C 155.231 23.819 155.523 24.239 155.728 24.724 C 155.939 25.209 156.047 25.762 156.051 26.388 C 156.047 27.308 155.827 28.106 155.391 28.779 C 154.961 29.45 154.339 29.97 153.523 30.342 C 152.714 30.709 151.736 30.892 150.592 30.892 C 149.456 30.892 148.466 30.707 147.625 30.334 C 146.786 29.964 146.132 29.414 145.661 28.685 C 145.193 27.951 144.949 27.044 144.927 25.963 L 147.803 25.963 C 147.835 26.467 147.97 26.888 148.208 27.225 C 148.451 27.557 148.774 27.808 149.178 27.98 C 149.584 28.146 150.044 28.229 150.557 28.229 C 151.061 28.229 151.498 28.152 151.869 27.995 C 152.244 27.84 152.535 27.621 152.741 27.343 C 152.947 27.063 153.05 26.743 153.05 26.382 C 153.05 26.044 152.957 25.76 152.768 25.531 C 152.585 25.301 152.316 25.104 151.959 24.944 C 151.605 24.782 151.173 24.635 150.659 24.504 L 149.13 24.093 C 147.942 23.784 147.008 23.303 146.321 22.647 C 145.634 21.993 145.292 21.109 145.297 20 C 145.292 19.09 145.518 18.295 145.977 17.616 C 146.44 16.936 147.074 16.406 147.878 16.023 C 148.684 15.643 149.601 15.452 150.626 15.452 C 151.67 15.452 152.581 15.643 153.36 16.023 C 154.142 16.406 154.751 16.936 155.186 17.616 C 155.621 18.295 155.846 19.083 155.859 19.978 L 153.009 19.978 Z" style="stroke-width: 1; fill: rgb(22, 119, 255);" transform="matrix(1, 0, 0, 1, -2.842170943040401e-14, -5.684341886080802e-14)"/>
</svg>
