<?xml version="1.0" encoding="utf-8"?>
<!-- Generator: Adobe Illustrator 24.3.0, SVG Export Plug-In . SVG Version: 6.00 Build 0)  -->
<svg version="1.1" id="图层_1" xmlns="http://www.w3.org/2000/svg" xmlns:xlink="http://www.w3.org/1999/xlink" x="0px" y="0px"
	 viewBox="0 0 195.2 20.9" style="enable-background:new 0 0 195.2 20.9;" xml:space="preserve">
<style type="text/css">
	.st0{fill:#1677FF;}
</style>
<g>
	<path class="st0" d="M145.7,17.9h-5v-15h5c1.4,0,2.6,0.3,3.7,0.9c1,0.6,1.8,1.5,2.4,2.6c0.6,1.1,0.8,2.5,0.8,4c0,1.6-0.3,2.9-0.8,4
		c-0.6,1.1-1.3,2-2.4,2.6C148.4,17.6,147.2,17.9,145.7,17.9z M143.7,15.2h1.9c0.9,0,1.6-0.2,2.2-0.5c0.6-0.3,1.1-0.9,1.4-1.6
		c0.3-0.7,0.5-1.6,0.5-2.7s-0.2-2-0.5-2.7s-0.8-1.2-1.4-1.6c-0.6-0.3-1.3-0.5-2.2-0.5h-1.9V15.2z M167.7,10.4c0,1.6-0.3,3-0.9,4.2
		c-0.6,1.1-1.4,2-2.4,2.6s-2.1,0.9-3.4,0.9c-1.2,0-2.4-0.3-3.4-0.9s-1.8-1.5-2.4-2.6s-0.9-2.5-0.9-4.2c0-1.6,0.3-3,0.9-4.2
		s1.4-2,2.4-2.6s2.1-0.9,3.4-0.9c1.2,0,2.4,0.3,3.4,0.9s1.8,1.5,2.4,2.6C167.5,7.4,167.7,8.8,167.7,10.4z M164.7,10.4
		c0-1.1-0.1-2-0.4-2.7C164,7,163.6,6.4,163.1,6c-0.5-0.4-1.2-0.6-1.9-0.6s-1.3,0.2-1.9,0.6c-0.5,0.4-1,0.9-1.2,1.7
		c-0.3,0.7-0.4,1.6-0.4,2.7s0.1,2,0.4,2.7c0.3,0.7,0.7,1.3,1.2,1.7c0.5,0.4,1.2,0.6,1.9,0.6s1.3-0.2,1.9-0.6c0.5-0.4,1-0.9,1.2-1.7
		C164.6,12.4,164.7,11.5,164.7,10.4z M182.4,8.2h-3c-0.1-0.4-0.2-0.8-0.3-1.1c-0.2-0.3-0.4-0.6-0.7-0.8c-0.3-0.2-0.6-0.4-0.9-0.5
		s-0.7-0.2-1.1-0.2c-0.7,0-1.4,0.2-1.9,0.6s-1,0.9-1.3,1.7c-0.3,0.7-0.4,1.6-0.4,2.7s0.1,2,0.4,2.7c0.3,0.7,0.7,1.3,1.3,1.7
		c0.5,0.4,1.2,0.6,1.9,0.6c0.4,0,0.8-0.1,1.1-0.2c0.3-0.1,0.6-0.3,0.9-0.5s0.5-0.5,0.7-0.8c0.2-0.3,0.3-0.7,0.4-1.1h3
		c-0.1,0.7-0.3,1.4-0.6,2c-0.3,0.6-0.7,1.2-1.2,1.7s-1.1,0.9-1.9,1.2c-0.7,0.3-1.5,0.4-2.4,0.4c-1.3,0-2.4-0.3-3.4-0.9
		c-1-0.6-1.8-1.5-2.3-2.6c-0.6-1.1-0.8-2.5-0.8-4.2c0-1.6,0.3-3,0.9-4.2c0.6-1.2,1.4-2,2.3-2.6c1-0.6,2.1-0.9,3.3-0.9
		c0.8,0,1.6,0.1,2.3,0.4c0.7,0.2,1.3,0.6,1.9,1.1c0.5,0.5,1,1,1.3,1.7C182,6.5,182.3,7.3,182.4,8.2z M192.1,7.2
		c-0.1-0.6-0.3-1.1-0.7-1.4c-0.4-0.3-1-0.5-1.7-0.5c-0.5,0-0.9,0.1-1.2,0.2c-0.3,0.1-0.6,0.3-0.8,0.6c-0.2,0.3-0.3,0.5-0.3,0.9
		c0,0.3,0,0.5,0.2,0.7c0.1,0.2,0.3,0.4,0.5,0.5c0.2,0.1,0.4,0.3,0.7,0.4c0.3,0.1,0.6,0.2,0.9,0.3l1.3,0.3c0.6,0.1,1.2,0.3,1.7,0.6
		c0.5,0.2,1,0.5,1.3,0.9c0.4,0.4,0.7,0.8,0.9,1.3s0.3,1,0.3,1.7c0,0.9-0.2,1.7-0.7,2.4c-0.4,0.7-1.1,1.2-1.9,1.6
		c-0.8,0.4-1.8,0.6-2.9,0.6s-2.1-0.2-3-0.6c-0.8-0.4-1.5-0.9-2-1.6c-0.5-0.7-0.7-1.6-0.7-2.7h2.9c0,0.5,0.2,0.9,0.4,1.3
		c0.2,0.3,0.6,0.6,1,0.8c0.4,0.2,0.9,0.2,1.4,0.2s0.9-0.1,1.3-0.2c0.4-0.2,0.7-0.4,0.9-0.7c0.2-0.3,0.3-0.6,0.3-1
		c0-0.3-0.1-0.6-0.3-0.9c-0.2-0.2-0.5-0.4-0.8-0.6c-0.4-0.2-0.8-0.3-1.3-0.4l-1.5-0.4c-1.2-0.3-2.1-0.8-2.8-1.4
		c-0.7-0.7-1-1.5-1-2.6c0-0.9,0.2-1.7,0.7-2.4s1.1-1.2,1.9-1.6c0.8-0.4,1.7-0.6,2.7-0.6s2,0.2,2.7,0.6c0.8,0.4,1.4,0.9,1.8,1.6
		c0.4,0.7,0.7,1.5,0.7,2.4h-2.9V7.2z"/>
	<g>
		<path d="M117.8,2.9V0.3h15.8v2.6h-6.4v17.7h-3.1V2.9H117.8z"/>
		<path d="M105.7,20.6V0.3h3.1V18h9.2v2.6H105.7z"/>
		<path d="M101.8,10.5c0,2.2-0.4,4-1.2,5.6c-0.8,1.6-1.9,2.8-3.3,3.6c-1.4,0.8-2.9,1.3-4.7,1.3c-1.8,0-3.3-0.4-4.7-1.3
			c-1.4-0.8-2.5-2-3.3-3.6c-0.8-1.6-1.2-3.4-1.2-5.6c0-2.2,0.4-4,1.2-5.6c0.8-1.6,1.9-2.8,3.3-3.6c1.4-0.8,3-1.3,4.7-1.3
			c1.8,0,3.3,0.4,4.7,1.3c1.4,0.8,2.5,2,3.3,3.6C101.4,6.4,101.8,8.3,101.8,10.5z M98.8,10.5c0-1.7-0.3-3.1-0.8-4.2
			c-0.5-1.1-1.3-2-2.2-2.6c-0.9-0.6-2-0.9-3.1-0.9c-1.2,0-2.2,0.3-3.1,0.9c-0.9,0.6-1.7,1.4-2.2,2.6c-0.5,1.1-0.8,2.5-0.8,4.2
			c0,1.7,0.3,3.1,0.8,4.2c0.5,1.1,1.3,2,2.2,2.6c0.9,0.6,2,0.9,3.1,0.9c1.2,0,2.2-0.3,3.1-0.9c0.9-0.6,1.7-1.5,2.2-2.6
			C98.5,13.5,98.8,12.1,98.8,10.5z"/>
		<path d="M67.3,0.3L73,16.9h0.2l5.7-16.6h3.3l-7.3,20.4h-3.5L64,0.3H67.3z"/>
		<path d="M48.7,20.6V0.3h12.8v2.6h-9.7v6.2h9v2.6h-9V18h9.8v2.6H48.7z"/>
		<path d="M35.1,20.6h-6.6V0.3h6.8c2,0,3.7,0.4,5.1,1.2c1.4,0.8,2.5,2,3.3,3.5c0.8,1.5,1.2,3.3,1.2,5.4c0,2.1-0.4,3.9-1.2,5.5
			c-0.8,1.5-1.9,2.7-3.3,3.5C38.9,20.2,37.1,20.6,35.1,20.6z M31.5,18h3.4c1.6,0,2.8-0.3,3.9-0.9c1-0.6,1.8-1.4,2.3-2.6
			c0.5-1.1,0.8-2.5,0.8-4.1c0-1.6-0.3-3-0.8-4.1c-0.5-1.1-1.3-2-2.3-2.5c-1-0.6-2.2-0.9-3.7-0.9h-3.5V18z"/>
		<path d="M24,0.3v20.4h-2.8L10.8,5.7h-0.2v14.9H7.5V0.3h2.8l10.4,15h0.2v-15H24z"/>
		<path d="M3.1,0.3v20.4H0V0.3H3.1z"/>
	</g>
</g>
</svg>
