<?xml version="1.0" encoding="utf-8"?>
<!-- Generator: Adobe Illustrator 24.3.0, SVG Export Plug-In . SVG Version: 6.00 Build 0)  -->
<svg version="1.1" id="图层_1" xmlns="http://www.w3.org/2000/svg" xmlns:xlink="http://www.w3.org/1999/xlink" x="0px" y="0px"
	 viewBox="0 0 400 48.7" style="enable-background:new 0 0 400 48.7;" xml:space="preserve">
<style type="text/css">
	.st0{clip-path:url(#SVGID_2_);fill:#1B1D1D;}
	.st1{clip-path:url(#SVGID_4_);fill:#1B1D1D;}
	.st2{clip-path:url(#SVGID_6_);fill:#1B1D1D;}
	.st3{clip-path:url(#SVGID_8_);fill:#1B1D1D;}
	.st4{clip-path:url(#SVGID_10_);fill:#3250C3;}
	.st5{clip-path:url(#SVGID_12_);fill:#3250C3;}
	.st6{clip-path:url(#SVGID_14_);fill:#3250C3;}
	.st7{clip-path:url(#SVGID_16_);fill:#3250C3;}
	.st8{clip-path:url(#SVGID_18_);fill:#1B1D1D;}
	.st9{clip-path:url(#SVGID_20_);fill:#1B1D1D;}
	.st10{clip-path:url(#SVGID_22_);fill:#1B1D1D;}
</style>
<g>
	<g>
		<defs>
			<rect id="SVGID_1_" width="400" height="48.7"/>
		</defs>
		<clipPath id="SVGID_2_">
			<use xlink:href="#SVGID_1_"  style="overflow:visible;"/>
		</clipPath>
		<polygon class="st0" points="252.4,1.2 229.8,47.5 217.8,47.5 195.2,1.2 208.4,1.2 224.2,34.2 240.4,1.2 		"/>
	</g>
	<g>
		<defs>
			<rect id="SVGID_3_" width="400" height="48.7"/>
		</defs>
		<clipPath id="SVGID_4_">
			<use xlink:href="#SVGID_3_"  style="overflow:visible;"/>
		</clipPath>
		<rect y="1.2" class="st1" width="11.9" height="46.3"/>
	</g>
	<g>
		<defs>
			<rect id="SVGID_5_" width="400" height="48.7"/>
		</defs>
		<clipPath id="SVGID_6_">
			<use xlink:href="#SVGID_5_"  style="overflow:visible;"/>
		</clipPath>
		<polygon class="st2" points="72.6,1.2 72.6,47.5 61.9,47.5 33.4,18.6 33.4,47.5 21.4,47.5 21.4,1.2 32.1,1.2 60.6,30.1 60.6,1.2 
					"/>
	</g>
	<g>
		<defs>
			<rect id="SVGID_7_" width="400" height="48.7"/>
		</defs>
		<clipPath id="SVGID_8_">
			<use xlink:href="#SVGID_7_"  style="overflow:visible;"/>
		</clipPath>
		<path class="st3" d="M106.6,38.2H94.1V10.4h12.5c7.9,0,14.3,6.2,14.3,13.9C120.8,32,114.4,38.2,106.6,38.2z M82.1,1.2v46.3h28
			c12.5,0,23.2-9.8,23.2-22v-2.3c0-12.2-10.7-22-23.2-22L82.1,1.2L82.1,1.2z"/>
	</g>
	<g>
		<defs>
			<rect id="SVGID_9_" width="400" height="48.7"/>
		</defs>
		<clipPath id="SVGID_10_">
			<use xlink:href="#SVGID_9_"  style="overflow:visible;"/>
		</clipPath>
		<polygon class="st4" points="149.6,19.1 157.2,19.1 142.8,47.5 144.7,25.2 138.1,25.2 142.2,1.2 155.1,1.2 		"/>
	</g>
	<g>
		<defs>
			<rect id="SVGID_11_" width="400" height="48.7"/>
		</defs>
		<clipPath id="SVGID_12_">
			<use xlink:href="#SVGID_11_"  style="overflow:visible;"/>
		</clipPath>
		<polygon class="st5" points="156.7,11.6 190.5,11.6 190.5,1.2 159.8,1.2 		"/>
	</g>
	<g>
		<defs>
			<rect id="SVGID_13_" width="400" height="48.7"/>
		</defs>
		<clipPath id="SVGID_14_">
			<use xlink:href="#SVGID_13_"  style="overflow:visible;"/>
		</clipPath>
		<polygon class="st6" points="156.7,29.5 190.5,29.5 190.5,19.1 161.9,19.1 		"/>
	</g>
	<g>
		<defs>
			<rect id="SVGID_15_" width="400" height="48.7"/>
		</defs>
		<clipPath id="SVGID_16_">
			<use xlink:href="#SVGID_15_"  style="overflow:visible;"/>
		</clipPath>
		<polygon class="st7" points="147.6,47.5 190.5,47.5 190.5,37.1 152.9,37.1 		"/>
	</g>
	<g>
		<defs>
			<rect id="SVGID_17_" width="400" height="48.7"/>
		</defs>
		<clipPath id="SVGID_18_">
			<use xlink:href="#SVGID_17_"  style="overflow:visible;"/>
		</clipPath>
		<path class="st8" d="M283.3,0c-16.5,0-28.6,8.7-28.6,24.3s12.1,24.4,28.6,24.4s28.6-8.7,28.6-24.4C311.9,8.6,299.8,0,283.3,0z
			 M283.3,11.6c5.4,0,10,1.3,12.9,3.6c2.6,2.1,3.8,5,3.8,9.1s-1.3,7.1-3.8,9.2c-2.9,2.3-7.4,3.6-12.8,3.6s-9.9-1.3-12.8-3.6
			c-2.6-2.1-3.9-5.1-3.9-9.2c0-4,1.2-7,3.8-9.1C273.4,12.9,277.9,11.6,283.3,11.6z"/>
	</g>
	<g>
		<defs>
			<rect id="SVGID_19_" width="400" height="48.7"/>
		</defs>
		<clipPath id="SVGID_20_">
			<use xlink:href="#SVGID_19_"  style="overflow:visible;"/>
		</clipPath>
		<polygon class="st9" points="331,38.2 331,1.2 319,1.2 319,47.5 361.9,47.5 361.9,38.2 		"/>
	</g>
	<g>
		<defs>
			<rect id="SVGID_21_" width="400" height="48.7"/>
		</defs>
		<clipPath id="SVGID_22_">
			<use xlink:href="#SVGID_21_"  style="overflow:visible;"/>
		</clipPath>
		<polygon class="st10" points="400,1.2 357.1,1.2 357.1,10.4 372.6,10.4 372.6,47.5 384.5,47.5 384.5,10.4 400,10.4 		"/>
	</g>
</g>
</svg>
