
<svg xmlns="http://www.w3.org/2000/svg" viewBox="0 0 498.19 212.73">
<path fill="#0B0B0B" d="M497.32,94.64a149.9,149.9,0,0,1-26.67-13,63.77,63.77,0,0,0,12.07-15.3A58.15,58.15,0,0,0,489.1,48.7c.43-3,0-5.31-1.18-7s-3.63-2.59-7.19-2.59H466.39V26.4H488a6.63,6.63,0,0,0,6.61-6.62V15H466.39V0h-13V15H429.87V26.4h23.55V39.13H429.87v11h46a52.29,52.29,0,0,1-5.15,11.63,51.37,51.37,0,0,1-10.09,12,54.81,54.81,0,0,1-8.46-9.61,63.8,63.8,0,0,1-5.83-10.64h-12.8a67.21,67.21,0,0,0,17.11,27.8,107.52,107.52,0,0,1-11.51,6.32,167.15,167.15,0,0,1-17.42,6.85l-.91.31,1.82,12.41,1.28-.4a164.07,164.07,0,0,0,20.8-7.91,107.28,107.28,0,0,0,15.92-9.1,119.22,119.22,0,0,0,15.2,9.14,139.71,139.71,0,0,0,19.21,7.87l1.3.43L498.19,95Z"/>
<path fill="#0B0B0B" d="M427.45,55.91l.85-.23V44l-1.43.35c-1.85.47-3.73.91-5.59,1.32-1.46.32-2.95.63-4.46.93V26.38h10.1V15h-10.1V0H404.31V15h-15l.1,11.35h15l-.08,22.38c-2.32.32-4.64.62-6.9.89-2.54.3-5.08.56-7.55.8l-1,.09v11.8l1.22-.08c2.39-.15,4.94-.39,7.58-.69,2.19-.26,4.43-.57,6.69-.93V89.39a5.18,5.18,0,0,1-.39,2.24,2.75,2.75,0,0,1-1.56,1.1,18.57,18.57,0,0,1-4.32.91c-1.92.23-4.51.46-7.69.69l-1.07.07v12.49l1.2-.06c5.27-.23,9.63-.56,12.95-1a22,22,0,0,0,8.12-2.38,9.3,9.3,0,0,0,4.24-5.29,29.2,29.2,0,0,0,1-8.56V58.4c1.8-.34,3.55-.71,5.2-1.1C423.93,56.84,425.75,56.37,427.45,55.91Z"/>
<path fill="#0B0B0B" d="M127.6,18.14h10.68c-2.34,5.9-6.3,16-8.22,21a8.27,8.27,0,0,0,7.73,11.21h24.89a6,6,0,0,0,5.93-5.94V22.14H156.75V38.49H143c3-7.82,7.32-18.6,7.36-18.7l.66-1.65h19V7.34H127.6Z"/>
<path fill="#0B0B0B" d="M226.47,55.54a22.45,22.45,0,0,1-6.12-5.62h14.36V39.59H205.19c.51-1.68,1-3.58,1.42-5.74h25.45V23.76H208.24c.1-.75.2-1.5.29-2.27s.21-1.84.28-2.78h25.45V8.15H209.4c0-1,.06-1.92.06-2.87V0H197.87V5.28c0,1,0,1.91-.06,2.87H175.14V18.71h22.15l-.47,5.05H177.1V33.85h18c-.22.93-.46,1.79-.7,2.6-.33,1.08-.69,2.13-1.08,3.14H174.11V49.92h13.38a29.41,29.41,0,0,1-5.33,4.92,58,58,0,0,1-10.45,5.73l-.69.3V72.15l1.57-.63c.52-.2,1-.41,1.52-.62V81.13h13.74a32.32,32.32,0,0,1-6.94,7.75,32.65,32.65,0,0,1-7.57,4.42l-.8.36,1.62,10.77,1.35-.56A46,46,0,0,0,187.7,97a39.78,39.78,0,0,0,10.63-13v23.92h12.16v-24a39.44,39.44,0,0,0,10.63,13,46.11,46.11,0,0,0,12.24,6.93l1.36.56,1.61-10.77-.8-.36a33.14,33.14,0,0,1-7.61-4.44A32,32,0,0,1,221,81.13h13.24l.14-10.52c.84.26,1.69.5,2.56.73l1.44.39V60.41l-.84-.24A42.07,42.07,0,0,1,226.47,55.54Zm-28.14,15H174.9A86.55,86.55,0,0,0,185,65.51v1h13.32Zm-2.39-13.88a35.48,35.48,0,0,0,4.91-6.77h6.83a34.47,34.47,0,0,0,4.16,6.74c-.31,0-.68,0-1.12,0Zm14.55,13.88v-4h2.18a19.73,19.73,0,0,0,5.07-.56,8.33,8.33,0,0,0,2.94-1.44,53.1,53.1,0,0,0,13.55,6Z"/>
<polygon fill="#0B0B0B" points="167.53 61.62 155.49 61.62 155.49 50.49 143.55 50.49 143.55 61.62 129.43 61.62 129.43 61.62 129.43 61.62 129.43 72.53 129.43 72.53 129.43 72.53 143.55 72.53 143.55 93.57 127.14 93.57 127.14 104.48 167.53 104.48 167.53 93.57 155.49 93.57 155.49 72.53 167.53 72.53 167.53 72.53 167.53 72.53 167.53 61.62 167.53 61.62 167.53 61.62"/>
<polygon fill="#0B0B0B" points="27.08 30.76 39.02 30.76 39.02 20.66 66.1 20.66 66.1 30.76 77.92 30.76 77.92 20.66 103.18 20.66 103.18 9.53 77.92 9.53 77.92 0.12 66.1 0.12 66.1 9.53 39.02 9.53 39.02 0.12 27.08 0.12 27.08 9.53 1.71 9.53 1.71 20.66 27.08 20.66 27.08 30.76"/>
<path fill="#0B0B0B" d="M84.47,90.15h0a71,71,0,0,1-13.21-4.9,28.1,28.1,0,0,1-8-5.83A17.71,17.71,0,0,1,60,74.11l44.11,0V62.89H92.72V40a6.61,6.61,0,0,0-6.61-6.61H58.52V24.45H46.25v8.94H18.78A6.63,6.63,0,0,0,12.16,40V62.89H.81V74.13H44.89a17.57,17.57,0,0,1-3.4,5.54,27.72,27.72,0,0,1-8,5.83,70,70,0,0,1-13.21,4.91C15,91.88,8.47,93.28,1,94.57l-1,.16v12.18l1.32-.2c14.1-2.15,25.5-5,33.89-8.45,7.69-3.18,13.49-7.35,17.27-12.43,3.78,5,9.52,9,17.07,12.17,8.4,3.46,19.8,6.31,33.89,8.45l1.32.2V94.47l-1-.16C96.29,93,89.79,91.62,84.47,90.15ZM46.25,62.89H24.79V44.3H46.25ZM58.52,44.3H80.1V62.89H58.52Z"/>
<path fill="#0B0B0B" d="M309.62,32.48h-17V16.53h8.8a6.63,6.63,0,0,0,6.61-6.62V5.71h-1.17l-42.82,0h-1.15V16.53h17.33V32.48H261.2V43.61h19.28v64.26h11.94V43.61h17.2Z"/>
<path fill="#0B0B0B" d="M305.55,75.57c-.57-7.44-1-15.52-1.19-24l-.13-4.49H293.68l.12,4.77c.24,8.72.65,17,1.23,24.53.18,2.47.39,4.95.6,7.44l.39,4.47h9.08l1.5-.13-.45-5.26Q305.84,79.22,305.55,75.57Z"/>
<polygon fill="#0B0B0B" points="355.99 0 343.59 0 343.59 70 306.99 70 306.99 81.25 343.59 81.25 343.59 107.87 355.99 107.87 355.99 81.25 368.95 81.25 368.95 70 355.99 70 355.99 0"/>
<path fill="#0B0B0B" d="M278.31,47H267.74l.11,2.08c.3,5.2,1,22.87-1.78,31.84-3.17,10-6.72,14.32-7.11,14.77l-1.65,1.9H270.4l.33-.59a70,70,0,0,0,5.41-12.9h0c3.16-10,2.77-26.62,2.25-35.62Z"/>
<path fill="#0B0B0B" d="M324.91,66.77h11.8l-10-20.65,11.74-8.82A5.56,5.56,0,0,0,340,30.16l-11.16-20H316.62l11.82,21.24L316.93,40a5.57,5.57,0,0,0-1.63,6.87Z"/>
<path fill="#1677ff" d="M5.53,144.46H0v68.27H11.34V150.1A5.73,5.73,0,0,0,5.53,144.46Z"/>
<path fill="#1677ff" d="M97.52,144.47H57.38c-13.54,0-24.58,10.74-24.58,23.94v20.38c0,13.2,11,23.93,24.58,23.93H94.23a9,9,0,0,0,9.08-8.81V181.35a5.81,5.81,0,0,0-5.89-5.72H75.34v4.74a6.36,6.36,0,0,0,6.46,6.27H92v15H57.38a13.07,13.07,0,0,1-13.23-12.88V168.41a13.08,13.08,0,0,1,13.23-12.88h46v-5.41A5.74,5.74,0,0,0,97.52,144.47Z"/>
<path fill="#1677ff" d="M254.92,144.44v48.39c-5.17-7.88-11.11-16.66-16.38-23.68-6.68-8.89-12.76-16.86-17-22.33a6.11,6.11,0,0,0-4.85-2.36H207.1v68.27h11.35v-52.4c3.35,4.39,7.23,9.51,11.34,15,7.83,10.42,17.43,25.24,23.37,34.61a6.07,6.07,0,0,0,5.15,2.8h7.95V144.44Z"/>
<path fill="#1677ff" d="M180.7,144.54H154.75c-17,0-30.82,13.4-30.82,29.92v8.18c0,16.52,13.8,29.92,30.82,29.92h25.92a5.74,5.74,0,0,0,5.82-5.65v-5.37H154.75a19.27,19.27,0,0,1-19.42-17.49h51.19V173H135.33a19.28,19.28,0,0,1,19.42-17.49h31.77v-5.36A5.73,5.73,0,0,0,180.7,144.54Z"/>
</svg>
